<svg width="324" height="321" viewBox="0 0 324 321" fill="none" xmlns="http://www.w3.org/2000/svg">
<rect x="80.0542" y="1" width="161.202" height="318.126" rx="23" fill="#113466" stroke="#113466" stroke-width="2"/>
<rect x="85.332" y="6.27707" width="150.648" height="307.572" rx="20" fill="white"/>
<path d="M119.838 5.72339H204.544V7.59144C204.544 10.3529 202.306 12.5914 199.544 12.5914H124.838C122.077 12.5914 119.838 10.3529 119.838 7.59144V5.72339Z" fill="#113466"/>
<rect x="143.877" y="202.608" width="38.1557" height="3.81557" fill="#B1B1B1"/>
<rect x="143.877" y="213.291" width="64.8647" height="3.81557" fill="#D9D9D9"/>
<rect x="143.877" y="223.975" width="53.418" height="3.81557" fill="#E8E8E8"/>
<path d="M112.97 222.054C112.97 217.636 116.552 214.054 120.97 214.054H127.864C132.282 214.054 135.864 217.636 135.864 222.054V227.79H112.97V222.054Z" fill="#113466"/>
<circle cx="124.417" cy="207.186" r="5.72338" fill="#113466"/>
<rect x="143.877" y="247.25" width="38.1557" height="3.81557" fill="#B1B1B1"/>
<rect x="143.877" y="257.934" width="64.8647" height="3.81557" fill="#D9D9D9"/>
<rect x="143.877" y="268.617" width="53.418" height="3.81557" fill="#E8E8E8"/>
<path d="M112.97 266.697C112.97 262.278 116.552 258.697 120.97 258.697H127.864C132.282 258.697 135.864 262.278 135.864 266.697V272.433H112.97V266.697Z" fill="#113466"/>
<circle cx="124.417" cy="251.829" r="5.72338" fill="#113466"/>
<rect x="108.392" y="127.059" width="104.165" height="27.4722" rx="8" fill="#D9D9D9"/>
<rect x="103.913" y="87.0953" width="114.268" height="63.9018" rx="7.9" fill="#D9D9D9" stroke="black" stroke-width="0.2"/>
<path d="M79.0542 75.324V91.0164H78.285C77.8431 91.0164 77.485 90.6583 77.485 90.2164V76.124C77.485 75.6821 77.8431 75.324 78.285 75.324H79.0542Z" fill="#113466"/>
<path d="M242.256 103.57V78.4621H244.595C245.037 78.4621 245.395 78.8203 245.395 79.2621V102.77C245.395 103.212 245.037 103.57 244.595 103.57H242.256Z" fill="#113466"/>
<path d="M79.0542 97.293V112.985H78.285C77.8431 112.985 77.485 112.627 77.485 112.185V98.093C77.485 97.6512 77.8431 97.293 78.285 97.293H79.0542Z" fill="#113466"/>
<rect x="205.688" y="22.8935" width="76.3114" height="53.418" rx="10" fill="#0055B2"/>
<rect x="220.951" y="34.3402" width="45.7869" height="4.96024" rx="2" fill="#FDFDFD"/>
<rect x="220.951" y="45.7869" width="45.7869" height="4.96024" rx="2" fill="#FDFDFD"/>
<rect x="220.951" y="57.2337" width="26.709" height="4.96024" rx="2" fill="#FDFDFD"/>
<path d="M228.407 88.5738C227.637 89.9072 225.713 89.9072 224.943 88.5738L213.537 68.8187C212.768 67.4854 213.73 65.8187 215.27 65.8187H238.081C239.62 65.8187 240.583 67.4854 239.813 68.8187L228.407 88.5738Z" fill="#0055B2"/>
<rect width="76.6932" height="53.418" rx="10" transform="matrix(-1 0 0 1 118.693 132.782)" fill="#0055B2"/>
<rect width="46.0159" height="4.96024" rx="2" transform="matrix(-1 0 0 1 103.354 144.229)" fill="#FDFDFD"/>
<rect width="46.0159" height="4.96024" rx="2" transform="matrix(-1 0 0 1 103.354 155.676)" fill="#FDFDFD"/>
<rect width="26.8426" height="4.96024" rx="2" transform="matrix(-1 0 0 1 83.7236 167.123)" fill="#FDFDFD"/>
<path d="M95.8713 198.481C96.6421 199.81 98.5603 199.81 99.3311 198.481L110.802 178.711C111.576 177.378 110.614 175.708 109.073 175.708H86.1298C84.5883 175.708 83.6263 177.378 84.4 178.711L95.8713 198.481Z" fill="#0055B2"/>
<circle cx="304" cy="269" r="20" fill="#006CE2"/>
<circle cx="300" cy="269" r="16" fill="#007AFF"/>
<circle cx="25" cy="57" r="25" fill="#006CE2"/>
<circle cx="22" cy="61" r="20" fill="#007AFF"/>
<circle cx="54" cy="104" r="10" fill="#006CE2"/>
<circle cx="52.8003" cy="105.6" r="8" fill="#007AFF"/>
<circle cx="285" cy="229" r="10" fill="#006CE2"/>
<circle cx="283.8" cy="230.6" r="8" fill="#007AFF"/>
</svg>
