<svg width="115" height="85" viewBox="0 0 115 85" fill="none" xmlns="http://www.w3.org/2000/svg">
<path d="M67.832 32.0594L9.2832 67.7753" stroke="black"/>
<rect x="1.09912" y="1.9519" width="112.802" height="80.9529" rx="6" fill="white" stroke="#113466" stroke-width="2"/>
<path d="M9.2832 32.0596L67.832 67.7754" stroke="#113466" stroke-width="2"/>
<path d="M67.9448 32.4742L9.28355 68.0037" stroke="#113466" stroke-width="2"/>
<rect x="7.9873" y="30.7552" width="61.1409" height="38.3243" rx="1" stroke="#113466" stroke-width="2"/>
<path d="M0.0991211 7.95191C0.0991211 4.08592 3.23313 0.951904 7.09912 0.951904H34.5396V6.62525C34.5396 10.4912 31.4056 13.6253 27.5396 13.6253H0.0991211V7.95191Z" fill="#0055B2"/>
<path d="M1.09912 7.9519C1.09912 4.6382 3.78541 1.9519 7.09912 1.9519H56.4999V14.6901C56.4999 18.0038 53.8136 20.6901 50.4999 20.6901H1.09912V7.9519Z" stroke="#113466" stroke-width="2"/>
<rect x="99.3301" y="62.8075" width="13.7778" height="52.1386" rx="4.5" transform="rotate(180 99.3301 62.8075)" fill="#0055B2" stroke="#113466"/>
<rect x="99.3301" y="63.796" width="13.7778" height="46.4583" transform="rotate(180 99.3301 63.796)" fill="white" stroke="#113466"/>
<rect x="97.0615" y="50.2867" width="1.67653" height="21.186" rx="0.838263" transform="rotate(180 97.0615 50.2867)" fill="#0055B2"/>
<rect x="92.9727" y="46.0011" width="1.67653" height="11.2159" rx="0.838263" transform="rotate(180 92.9727 46.0011)" fill="#0055B2"/>
<rect x="89.3984" y="50.9861" width="1.67653" height="21.186" rx="0.838263" transform="rotate(180 89.3984 50.9861)" fill="#0055B2"/>
<path d="M98.8859 64.7963L92.2008 74.6362L85.9613 64.7963L98.8859 64.7963Z" fill="white" fill-opacity="0.7" stroke="#113466"/>
<path d="M92.3698 73.4869L90.9984 71.7173L93.8392 71.7173L92.3698 73.4869Z" fill="#113466" stroke="#113466"/>
</svg>
