<svg width="60" height="60" viewBox="0 0 60 60" fill="none" xmlns="http://www.w3.org/2000/svg">
<path d="M50.7724 44.27C55.4899 39.15 55.0149 32.575 54.9999 32.5V12.5C54.9999 11.837 54.7365 11.2011 54.2677 10.7322C53.7989 10.2634 53.163 10 52.4999 10H37.4999C34.7424 10 32.4999 12.2425 32.4999 15V32.5C32.4999 33.163 32.7633 33.7989 33.2322 34.2678C33.701 34.7366 34.3369 35 34.9999 35H42.6949C42.6421 36.236 42.2728 37.4377 41.6224 38.49C40.3524 40.4925 37.9599 41.86 34.5074 42.55L32.4999 42.95V50H34.9999C41.9574 50 47.2649 48.0725 50.7724 44.27ZM23.2549 44.27C27.9749 39.15 27.4974 32.575 27.4824 32.5V12.5C27.4824 11.837 27.219 11.2011 26.7502 10.7322C26.2813 10.2634 25.6455 10 24.9824 10H9.98242C7.22492 10 4.98242 12.2425 4.98242 15V32.5C4.98242 33.163 5.24581 33.7989 5.71465 34.2678C6.1835 34.7366 6.81938 35 7.48242 35H15.1774C15.1246 36.236 14.7553 37.4377 14.1049 38.49C12.8349 40.4925 10.4424 41.86 6.98992 42.55L4.98242 42.95V50H7.48242C14.4399 50 19.7474 48.0725 23.2549 44.27Z" fill="#006CE2"/>
</svg>
