<svg width="28" height="28" viewBox="0 0 28 28" fill="none" xmlns="http://www.w3.org/2000/svg">
<rect y="0.09375" width="28" height="27.8125" rx="5" fill="#1A233B"/>
<g clip-path="url(#clip0_1008_454)">
<path fill-rule="evenodd" clip-rule="evenodd" d="M10.5987 5.89325C11.4785 5.85275 11.759 5.84375 14 5.84375C16.241 5.84375 16.5215 5.8535 17.4005 5.89325C18.2795 5.933 18.8795 6.07325 19.4045 6.2765C19.9542 6.48425 20.453 6.809 20.8655 7.229C21.2855 7.64075 21.6095 8.13875 21.8165 8.68925C22.0205 9.21425 22.16 9.81425 22.2005 10.6918C22.241 11.573 22.25 11.8535 22.25 14.0938C22.25 16.3348 22.2402 16.6152 22.2005 17.495C22.1607 18.3725 22.0205 18.9725 21.8165 19.4975C21.6095 20.0481 21.285 20.5469 20.8655 20.9592C20.453 21.3792 19.9542 21.7033 19.4045 21.9103C18.8795 22.1143 18.2795 22.2537 17.402 22.2943C16.5215 22.3347 16.241 22.3438 14 22.3438C11.759 22.3438 11.4785 22.334 10.5987 22.2943C9.72125 22.2545 9.12125 22.1143 8.59625 21.9103C8.04569 21.7032 7.54687 21.3787 7.1345 20.9592C6.71478 20.5473 6.38999 20.0487 6.18275 19.4982C5.9795 18.9732 5.84 18.3732 5.7995 17.4957C5.759 16.6145 5.75 16.334 5.75 14.0938C5.75 11.8527 5.75975 11.5722 5.7995 10.6933C5.83925 9.81425 5.9795 9.21425 6.18275 8.68925C6.39029 8.13881 6.71534 7.64023 7.13525 7.22825C7.54703 6.80863 8.04535 6.48383 8.5955 6.2765C9.1205 6.07325 9.7205 5.93375 10.598 5.89325H10.5987ZM17.3337 7.37825C16.4637 7.3385 16.2027 7.33025 14 7.33025C11.7972 7.33025 11.5362 7.3385 10.6662 7.37825C9.8615 7.415 9.425 7.54925 9.134 7.6625C8.74925 7.8125 8.474 7.99025 8.18525 8.279C7.91153 8.54529 7.70089 8.86946 7.56875 9.22775C7.4555 9.51875 7.32125 9.95525 7.2845 10.76C7.24475 11.63 7.2365 11.891 7.2365 14.0938C7.2365 16.2965 7.24475 16.5575 7.2845 17.4275C7.32125 18.2323 7.4555 18.6688 7.56875 18.9598C7.70075 19.3175 7.9115 19.6423 8.18525 19.9085C8.4515 20.1823 8.77625 20.393 9.134 20.525C9.425 20.6383 9.8615 20.7725 10.6662 20.8092C11.5362 20.849 11.7965 20.8573 14 20.8573C16.2035 20.8573 16.4637 20.849 17.3337 20.8092C18.1385 20.7725 18.575 20.6383 18.866 20.525C19.2507 20.375 19.526 20.1973 19.8147 19.9085C20.0885 19.6423 20.2992 19.3175 20.4312 18.9598C20.5445 18.6688 20.6787 18.2323 20.7155 17.4275C20.7552 16.5575 20.7635 16.2965 20.7635 14.0938C20.7635 11.891 20.7552 11.63 20.7155 10.76C20.6787 9.95525 20.5445 9.51875 20.4312 9.22775C20.2812 8.843 20.1035 8.56775 19.8147 8.279C19.5484 8.0053 19.2243 7.79466 18.866 7.6625C18.575 7.54925 18.1385 7.415 17.3337 7.37825ZM12.9462 16.637C13.5347 16.882 14.19 16.915 14.8002 16.7305C15.4104 16.546 15.9375 16.1554 16.2917 15.6254C16.6459 15.0954 16.805 14.4589 16.742 13.8246C16.679 13.1903 16.3978 12.5975 15.9462 12.1475C15.6584 11.8599 15.3104 11.6396 14.9272 11.5026C14.5441 11.3656 14.1353 11.3153 13.7304 11.3552C13.3254 11.3952 12.9344 11.5244 12.5854 11.7336C12.2363 11.9428 11.9381 12.2268 11.712 12.5651C11.4859 12.9035 11.3376 13.2877 11.2779 13.6902C11.2181 14.0927 11.2484 14.5035 11.3664 14.8929C11.4844 15.2823 11.6874 15.6407 11.9605 15.9423C12.2337 16.2439 12.5704 16.4811 12.9462 16.637ZM11.0015 11.0953C11.3953 10.7015 11.8627 10.3891 12.3772 10.176C12.8917 9.96291 13.4431 9.85323 14 9.85323C14.5569 9.85323 15.1083 9.96291 15.6228 10.176C16.1373 10.3891 16.6047 10.7015 16.9985 11.0953C17.3923 11.489 17.7046 11.9565 17.9177 12.471C18.1308 12.9855 18.2405 13.5369 18.2405 14.0938C18.2405 14.6506 18.1308 15.202 17.9177 15.7165C17.7046 16.231 17.3923 16.6985 16.9985 17.0922C16.2032 17.8875 15.1247 18.3343 14 18.3343C12.8753 18.3343 11.7968 17.8875 11.0015 17.0922C10.2062 16.297 9.75948 15.2184 9.75948 14.0938C9.75948 12.9691 10.2062 11.8905 11.0015 11.0953ZM19.181 10.4848C19.2786 10.3927 19.3567 10.282 19.4107 10.1592C19.4648 10.0365 19.4936 9.90408 19.4956 9.76995C19.4975 9.63582 19.4725 9.50266 19.4221 9.37836C19.3717 9.25405 19.2968 9.14113 19.202 9.04628C19.1071 8.95143 18.9942 8.87657 18.8699 8.82614C18.7456 8.77571 18.6124 8.75073 18.4783 8.75269C18.3442 8.75464 18.2118 8.78349 18.089 8.83752C17.9662 8.89155 17.8555 8.96967 17.7635 9.06725C17.5845 9.25702 17.4865 9.50909 17.4903 9.76995C17.4941 10.0308 17.5994 10.2799 17.7839 10.4644C17.9683 10.6489 18.2174 10.7542 18.4783 10.758C18.7392 10.7618 18.9912 10.6638 19.181 10.4848Z" fill="#FDFDFD"/>
</g>
<defs>
<clipPath id="clip0_1008_454">
<rect width="18" height="18" fill="white" transform="translate(5 5.09375)"/>
</clipPath>
</defs>
</svg>
