<svg width="28" height="28" viewBox="0 0 28 28" fill="none" xmlns="http://www.w3.org/2000/svg">
<rect x="0.5" y="0.046875" width="27.5" height="27.5" rx="4" fill="#1A233B"/>
<path fill-rule="evenodd" clip-rule="evenodd" d="M12.0004 11.1448H15.2501V12.7635C15.7183 11.8325 16.9188 10.996 18.7221 10.996C22.1793 10.996 23 12.8493 23 16.2495V22.5469H19.5V17.0239C19.5 15.0875 19.0319 13.9955 17.8401 13.9955C16.1873 13.9955 15.5004 15.1724 15.5004 17.023V22.5469H12.0004V11.1448V11.1448ZM5.99875 22.3981H9.49875V10.996H5.99875V22.3981V22.3981ZM10.0001 7.27813C10.0003 7.57149 9.94207 7.86196 9.82896 8.13264C9.71585 8.40332 9.55007 8.64882 9.34125 8.85488C8.9181 9.27542 8.34533 9.51082 7.74875 9.50938C7.15322 9.50898 6.58177 9.27417 6.158 8.85575C5.94994 8.649 5.78471 8.40322 5.6718 8.1325C5.55889 7.86178 5.50051 7.57145 5.5 7.27813C5.5 6.68575 5.73625 6.11875 6.15888 5.7005C6.58227 5.28151 7.15396 5.04661 7.74963 5.04688C8.34638 5.04688 8.91863 5.28225 9.34125 5.7005C9.763 6.11875 10.0001 6.68575 10.0001 7.27813Z" fill="white"/>
</svg>
