<svg width="30" height="30" viewBox="0 0 30 30" fill="none" xmlns="http://www.w3.org/2000/svg">
<path d="M21.251 25H7.50098C6.83794 25 6.20205 24.7366 5.73321 24.2678C5.26437 23.7989 5.00098 23.163 5.00098 22.5V8.75C5.00098 8.08696 5.26437 7.45107 5.73321 6.98223C6.20205 6.51339 6.83794 6.25 7.50098 6.25H12.501V8.75H7.50098V22.5H21.251V17.5H23.751V22.5C23.751 23.163 23.4876 23.7989 23.0187 24.2678C22.5499 24.7366 21.914 25 21.251 25ZM14.626 17.1337L12.8635 15.3663L20.7297 7.5H16.251V5H25.001V13.75H22.501V9.26875L14.626 17.1337Z" fill="#002658"/>
</svg>
