<svg width="45" height="84" viewBox="0 0 45 84" fill="none" xmlns="http://www.w3.org/2000/svg">
<rect x="2.01074" y="1" width="40.5686" height="81.5" rx="7" fill="#113466" stroke="#113466" stroke-width="2"/>
<rect x="3" y="2" width="39" height="80" rx="6" fill="white"/>
<path d="M11.6528 1.63721H33.7558V2.09309C33.7558 3.19766 32.8603 4.09309 31.7558 4.09309H13.6528C12.5483 4.09309 11.6528 3.19766 11.6528 2.09309V1.63721Z" fill="#113466"/>
<path d="M18.4836 46.7385L13.1113 41.75L18.4836 36.7615M26.9257 46.7385L32.2979 41.75L26.9257 36.7615" stroke="#0055B2" stroke-width="2.75" stroke-linecap="round" stroke-linejoin="round"/>
<path d="M1.01074 19.6471L1.01074 23.7402C0.784684 23.7402 0.601428 23.557 0.601428 23.3309L0.601428 20.0564C0.601428 19.8304 0.784684 19.6471 1.01074 19.6471Z" fill="#113466"/>
<path d="M43.5796 27.0146V20.4656H43.5982C44.04 20.4656 44.3982 20.8238 44.3982 21.2656V26.2146C44.3982 26.6565 44.04 27.0146 43.5982 27.0146H43.5796Z" fill="#113466"/>
<path d="M1.01074 25.3774L1.01074 29.4706C0.784684 29.4706 0.601428 29.2873 0.601428 29.0613L0.601428 25.7868C0.601428 25.5607 0.784684 25.3774 1.01074 25.3774Z" fill="#113466"/>
</svg>
