<svg width="50" height="51" viewBox="0 0 50 51" fill="none" xmlns="http://www.w3.org/2000/svg">
<g clip-path="url(#clip0_1356_33)">
<path d="M1.06786 24.8928C1.06669 29.1264 2.1729 33.2603 4.27634 36.9039L0.866699 49.353L13.6068 46.0125C17.1306 47.9308 21.0787 48.936 25.0908 48.9362H25.1013C38.3459 48.9362 49.1274 38.1587 49.133 24.9118C49.1356 18.4927 46.638 12.4566 42.1003 7.91533C37.5634 3.37449 31.5294 0.872436 25.1004 0.869507C11.8542 0.869507 1.07353 11.6464 1.06806 24.8928" fill="url(#paint0_linear_1356_33)"/>
<path d="M0.209953 24.885C0.208586 29.271 1.35444 33.5526 3.53287 37.3267L0.000976562 50.2221L13.1979 46.7619C16.8341 48.7444 20.9281 49.7897 25.094 49.7913H25.1047C38.8245 49.7913 49.9932 38.6261 49.9991 24.9049C50.0014 18.2552 47.414 12.0021 42.7142 7.29816C38.0138 2.59482 31.764 0.00273427 25.1047 0C11.3826 0 0.215617 11.1636 0.210148 24.885H0.209953ZM8.06903 36.6767L7.57628 35.8945C5.50487 32.6009 4.41155 28.7948 4.41311 24.8866C4.41761 13.4817 13.6993 4.20297 25.1125 4.20297C30.6397 4.20531 35.834 6.35992 39.7409 10.2691C43.6476 14.1788 45.7973 19.3758 45.7959 24.9034C45.7908 36.3082 36.509 45.5881 25.1047 45.5881H25.0965C21.3832 45.5862 17.7413 44.5889 14.5653 42.7044L13.8094 42.2562L5.97809 44.3095L8.06903 36.6765V36.6767Z" fill="url(#paint1_linear_1356_33)"/>
<path d="M18.8826 14.4814C18.4166 13.4457 17.9262 13.4248 17.483 13.4067C17.1201 13.3911 16.7053 13.3922 16.2909 13.3922C15.876 13.3922 15.202 13.5483 14.6323 14.1703C14.062 14.793 12.4551 16.2976 12.4551 19.3578C12.4551 22.4183 14.6841 25.3758 14.9948 25.7912C15.3059 26.2058 19.298 32.6868 25.6204 35.1801C30.8749 37.2521 31.9442 36.84 33.0846 36.7361C34.2252 36.6326 36.7649 35.2318 37.283 33.7793C37.8016 32.3271 37.8016 31.0822 37.6461 30.822C37.4907 30.5629 37.0758 30.4072 36.4538 30.0963C35.8315 29.7852 32.7734 28.2803 32.2034 28.0727C31.6331 27.8653 31.2184 27.7618 30.8036 28.3846C30.3888 29.0065 29.1976 30.4072 28.8345 30.822C28.4719 31.2378 28.1088 31.2896 27.4869 30.9785C26.8645 30.6664 24.8612 30.0104 22.4846 27.8915C20.6354 26.2427 19.387 24.2067 19.0242 23.5838C18.6613 22.962 18.9853 22.6249 19.2972 22.3149C19.5767 22.0362 19.9194 21.5886 20.2308 21.2255C20.5409 20.8623 20.6444 20.6031 20.8518 20.1883C21.0594 19.773 20.9555 19.4098 20.8003 19.0987C20.6444 18.7875 19.4357 15.7115 18.8826 14.4816" fill="white"/>
</g>
<defs>
<linearGradient id="paint0_linear_1356_33" x1="24.9999" y1="49.353" x2="24.9999" y2="0.869507" gradientUnits="userSpaceOnUse">
<stop stop-color="#1FAF38"/>
<stop offset="1" stop-color="#60D669"/>
</linearGradient>
<linearGradient id="paint1_linear_1356_33" x1="25" y1="50.2221" x2="25" y2="0" gradientUnits="userSpaceOnUse">
<stop stop-color="#F9F9F9"/>
<stop offset="1" stop-color="white"/>
</linearGradient>
<clipPath id="clip0_1356_33">
<rect width="50" height="50.3887" fill="white"/>
</clipPath>
</defs>
</svg>
